<?xml version="1.0" standalone="no"?>
<!DOCTYPE svg PUBLIC "-//W3C//DTD SVG 20010904//EN"
 "http://www.w3.org/TR/2001/REC-SVG-20010904/DTD/svg10.dtd">
<svg version="1.0" xmlns="http://www.w3.org/2000/svg"
 width="399.000000pt" height="566.000000pt" viewBox="0 0 399.000000 566.000000"
 preserveAspectRatio="xMidYMid meet">

<g transform="translate(0.000000,566.000000) scale(0.100000,-0.100000)"
fill="#000000" stroke="none">
<path d="M1811 4844 c0 -11 3 -14 6 -6 3 7 2 16 -1 19 -3 4 -6 -2 -5 -13z"/>
<path d="M1872 4808 c-2 -61 4 -88 20 -88 7 0 7 4 0 13 -6 7 -13 40 -15 72
l-3 60 -2 -57z"/>
<path d="M1961 4801 c1 -32 -2 -65 -5 -72 -4 -8 -1 -6 8 4 16 21 21 127 5 127
-5 0 -8 -26 -8 -59z"/>
<path d="M2037 4789 c2 -96 13 -101 13 -6 0 43 -3 77 -7 77 -5 0 -7 -32 -6
-71z"/>
<path d="M2113 4785 c0 -44 2 -61 4 -37 2 23 2 59 0 80 -2 20 -4 1 -4 -43z"/>
<path d="M2218 4808 c5 -95 9 -104 11 -25 0 42 -2 77 -6 77 -5 0 -7 -24 -5
-52z"/>
<path d="M2336 4803 c-10 -32 -21 -65 -23 -73 -4 -13 -4 -13 6 0 6 8 18 40 27
70 l17 55 18 -50 c9 -27 18 -60 18 -72 1 -13 6 -23 11 -23 6 0 10 3 10 8 -1
18 -48 136 -57 139 -5 2 -17 -23 -27 -54z"/>
<path d="M2460 4806 c0 -60 7 -86 22 -86 6 0 5 6 -2 15 -7 9 -11 36 -8 70 1
30 0 55 -4 55 -5 0 -8 -24 -8 -54z"/>
<path d="M2551 4800 c0 -32 -2 -64 -6 -70 -3 -5 -2 -10 3 -10 5 0 12 10 16 23
9 35 7 117 -3 117 -6 0 -10 -27 -10 -60z"/>
<path d="M2622 4785 c0 -46 4 -73 10 -69 5 3 9 20 8 38 -4 65 1 72 19 26 10
-24 23 -46 28 -47 6 -2 19 20 31 49 l21 53 0 -64 c1 -35 4 -62 7 -58 9 9 10
147 1 147 -7 0 -31 -49 -52 -105 -5 -16 -11 -9 -29 39 -12 33 -27 61 -33 63
-6 2 -10 -25 -11 -72z"/>
<path d="M2818 4789 c-2 -39 0 -73 5 -76 4 -2 7 30 7 71 0 42 -2 76 -4 76 -2
0 -6 -32 -8 -71z"/>
<path d="M2891 4844 c0 -11 3 -14 6 -6 3 7 2 16 -1 19 -3 4 -6 -2 -5 -13z"/>
<path d="M3013 4785 c0 -44 2 -61 4 -37 2 23 2 59 0 80 -2 20 -4 1 -4 -43z"/>
<path d="M3260 4801 c0 -44 4 -62 18 -72 15 -13 16 -12 4 3 -9 11 -13 37 -10
73 1 30 0 55 -4 55 -5 0 -8 -26 -8 -59z"/>
<path d="M3351 4800 c0 -32 -2 -64 -6 -70 -3 -5 -2 -10 3 -10 5 0 12 14 16 31
9 47 7 109 -3 109 -6 0 -10 -27 -10 -60z"/>
<path d="M3421 4785 c0 -46 3 -73 9 -70 12 7 11 145 0 145 -5 0 -9 -34 -9 -75z"/>
<path d="M1723 4833 c-11 -29 -9 -91 4 -104 9 -9 10 -5 4 17 -4 16 -4 46 -1
66 8 40 4 50 -7 21z"/>
<path d="M3110 4831 c-14 -28 -12 -74 5 -97 13 -17 13 -15 3 17 -8 27 -8 46 0
68 12 35 8 41 -8 12z"/>
<path d="M3195 4786 c0 -37 4 -61 9 -56 13 13 15 88 2 105 -8 12 -11 0 -11
-49z"/>
<path d="M3494 4815 c1 -18 4 -31 9 -28 10 6 9 51 -1 57 -5 3 -8 -10 -8 -29z"/>
<path d="M1808 4755 c2 -19 6 -35 8 -35 2 0 4 16 4 35 0 19 -4 35 -8 35 -4 0
-6 -16 -4 -35z"/>
<path d="M677 4606 c-35 -32 -37 -37 -37 -97 0 -84 12 -101 29 -44 7 25 17 48
22 51 5 3 34 9 64 14 76 12 112 -1 117 -44 3 -28 1 -32 -17 -28 -11 2 -33 -1
-48 -7 -27 -10 -29 -14 -25 -59 3 -42 1 -47 -19 -50 -12 -2 -25 -12 -28 -23
-4 -10 -13 -19 -21 -19 -28 0 -10 -33 23 -44 18 -6 33 -15 33 -21 0 -5 9 -10
20 -10 33 0 24 -19 -15 -30 -36 -11 -38 -25 -3 -25 10 0 18 -6 18 -14 0 -25
17 -27 54 -7 39 22 52 15 42 -25 -9 -35 -66 -58 -123 -49 -50 7 -73 33 -73 83
0 28 -3 33 -17 28 -9 -4 -57 -19 -107 -34 -91 -27 -156 -71 -156 -105 0 -25
111 -118 175 -147 184 -84 370 -62 533 63 68 51 78 71 58 103 -24 36 -58 54
-143 76 -43 11 -94 29 -114 40 -34 19 -36 23 -28 51 5 17 14 34 20 37 16 11
24 190 10 247 -21 81 -75 123 -159 123 -41 0 -54 -5 -85 -34z m196 -260 c-34
-43 -56 -47 -51 -9 2 20 11 29 38 38 19 7 37 11 38 9 2 -1 -9 -19 -25 -38z"/>
<path d="M679 4458 c-1 -2 -3 -15 -4 -30 -3 -22 3 -30 36 -47 22 -12 42 -21
44 -21 8 0 5 64 -3 76 -6 11 -71 30 -73 22z"/>
<path d="M2732 4420 c0 -19 2 -27 5 -17 2 9 2 25 0 35 -3 9 -5 1 -5 -18z"/>
<path d="M2852 4420 c0 -19 2 -27 5 -17 2 9 2 25 0 35 -3 9 -5 1 -5 -18z"/>
<path d="M3442 4420 c0 -19 2 -27 5 -17 2 9 2 25 0 35 -3 9 -5 1 -5 -18z"/>
<path d="M3562 4420 c0 -19 2 -27 5 -17 2 9 2 25 0 35 -3 9 -5 1 -5 -18z"/>
<path d="M2001 4424 c0 -11 3 -14 6 -6 3 7 2 16 -1 19 -3 4 -6 -2 -5 -13z"/>
<path d="M2071 4424 c0 -11 3 -14 6 -6 3 7 2 16 -1 19 -3 4 -6 -2 -5 -13z"/>
<path d="M3071 4424 c0 -11 3 -14 6 -6 3 7 2 16 -1 19 -3 4 -6 -2 -5 -13z"/>
<path d="M3242 4420 c0 -14 2 -19 5 -12 2 6 2 18 0 25 -3 6 -5 1 -5 -13z"/>
<path d="M3402 4420 c0 -14 2 -19 5 -12 2 6 2 18 0 25 -3 6 -5 1 -5 -13z"/>
<path d="M2151 4404 c0 -11 3 -14 6 -6 3 7 2 16 -1 19 -3 4 -6 -2 -5 -13z"/>
<path d="M3161 4404 c0 -11 3 -14 6 -6 3 7 2 16 -1 19 -3 4 -6 -2 -5 -13z"/>
<path d="M893 3615 c0 -27 2 -38 4 -22 2 15 2 37 0 50 -2 12 -4 0 -4 -28z"/>
<path d="M1151 3618 c-1 -27 3 -48 7 -48 4 0 6 17 4 38 -5 58 -10 62 -11 10z"/>
<path d="M1233 3615 c0 -27 2 -38 4 -22 2 15 2 37 0 50 -2 12 -4 0 -4 -28z"/>
<path d="M1883 3615 c0 -27 2 -38 4 -22 2 15 2 37 0 50 -2 12 -4 0 -4 -28z"/>
<path d="M1052 3620 c0 -14 2 -19 5 -12 2 6 2 18 0 25 -3 6 -5 1 -5 -13z"/>
<path d="M972 3600 c0 -19 2 -27 5 -17 2 9 2 25 0 35 -3 9 -5 1 -5 -18z"/>
<path d="M1006 3605 c4 -8 8 -15 10 -15 2 0 4 7 4 15 0 8 -4 15 -10 15 -5 0
-7 -7 -4 -15z"/>
<path d="M1757 3591 c-4 -17 -3 -21 5 -13 5 5 8 16 6 23 -3 8 -7 3 -11 -10z"/>
<path d="M1830 3591 c0 -6 4 -13 10 -16 6 -3 7 1 4 9 -7 18 -14 21 -14 7z"/>
<path d="M1998 3573 c7 -3 16 -2 19 1 4 3 -2 6 -13 5 -11 0 -14 -3 -6 -6z"/>
<path d="M1801 2674 c0 -11 3 -14 6 -6 3 7 2 16 -1 19 -3 4 -6 -2 -5 -13z"/>
<path d="M1931 2668 c1 -16 3 -18 6 -6 2 9 12 19 21 21 12 3 10 5 -5 6 -18 1
-23 -4 -22 -21z"/>
<path d="M2060 2679 c0 -5 5 -7 10 -4 6 3 10 8 10 11 0 2 -4 4 -10 4 -5 0 -10
-5 -10 -11z"/>
<path d="M2328 2683 c7 -3 16 -2 19 1 4 3 -2 6 -13 5 -11 0 -14 -3 -6 -6z"/>
<path d="M2390 2681 c0 -5 9 -7 20 -4 11 3 20 7 20 9 0 2 -9 4 -20 4 -11 0
-20 -4 -20 -9z"/>
<path d="M2475 2680 c3 -5 12 -7 20 -3 21 7 19 13 -6 13 -11 0 -18 -4 -14 -10z"/>
<path d="M2610 2681 c0 -4 11 -6 25 -3 14 2 25 6 25 8 0 2 -11 4 -25 4 -14 0
-25 -4 -25 -9z"/>
<path d="M2696 2675 c4 -8 10 -15 15 -15 4 0 6 7 3 15 -4 8 -10 15 -15 15 -4
0 -6 -7 -3 -15z"/>
<path d="M2888 2683 c7 -3 16 -2 19 1 4 3 -2 6 -13 5 -11 0 -14 -3 -6 -6z"/>
<path d="M1757 2673 c-4 -3 -7 -13 -7 -22 1 -13 3 -13 11 2 11 19 8 33 -4 20z"/>
<path d="M2022 2635 c1 -28 3 -38 5 -22 4 25 7 27 21 15 16 -12 16 -11 1 7 -9
11 -19 27 -22 35 -3 8 -5 -7 -5 -35z"/>
<path d="M2237 2659 c7 -9 10 -19 6 -22 -3 -4 -2 -7 4 -7 6 0 14 8 17 17 4 10
4 14 0 10 -4 -4 -14 -1 -23 6 -14 10 -14 10 -4 -4z"/>
<path d="M2792 2640 c0 -19 2 -27 5 -17 2 9 2 25 0 35 -3 9 -5 1 -5 -18z"/>
<path d="M1832 2640 c0 -14 2 -19 5 -12 2 6 2 18 0 25 -3 6 -5 1 -5 -13z"/>
<path d="M2520 2652 c0 -7 -9 -12 -20 -12 -11 0 -20 -4 -20 -9 0 -13 34 -8 43
7 5 8 6 16 3 19 -3 4 -6 1 -6 -5z"/>
<path d="M1721 2634 c0 -11 3 -14 6 -6 3 7 2 16 -1 19 -3 4 -6 -2 -5 -13z"/>
<path d="M2408 2643 c6 -2 18 -2 25 0 6 3 1 5 -13 5 -14 0 -19 -2 -12 -5z"/>
<path d="M2618 2643 c7 -3 16 -2 19 1 4 3 -2 6 -13 5 -11 0 -14 -3 -6 -6z"/>
<path d="M2898 2643 c7 -3 16 -2 19 1 4 3 -2 6 -13 5 -11 0 -14 -3 -6 -6z"/>
<path d="M1790 2624 c0 -16 -2 -17 -10 -4 -5 8 -10 11 -10 5 0 -5 4 -16 9 -24
7 -11 10 -9 16 8 4 13 4 25 1 28 -3 4 -6 -2 -6 -13z"/>
<path d="M1931 2613 c1 -22 2 -23 6 -8 3 11 10 23 17 27 7 5 5 8 -6 8 -13 0
-18 -7 -17 -27z"/>
<path d="M2741 2613 c7 -12 15 -20 18 -17 3 2 -3 12 -13 22 -17 16 -18 16 -5
-5z"/>
<path d="M1736 2603 c-6 -14 -5 -15 5 -6 7 7 10 15 7 18 -3 3 -9 -2 -12 -12z"/>
<path d="M2060 2600 c0 -5 5 -10 11 -10 5 0 7 5 4 10 -3 6 -8 10 -11 10 -2 0
-4 -4 -4 -10z"/>
<path d="M1012 2550 c1 -44 2 -48 5 -16 4 35 5 37 19 20 14 -18 15 -18 5 1
-26 51 -31 51 -29 -5z"/>
<path d="M1071 2584 c0 -11 3 -14 6 -6 3 7 2 16 -1 19 -3 4 -6 -2 -5 -13z"/>
<path d="M1126 2585 c4 -8 7 -15 9 -15 2 0 5 7 9 15 3 9 0 15 -9 15 -9 0 -12
-6 -9 -15z"/>
<path d="M1275 2589 c-4 -6 -4 -13 -1 -16 3 -4 6 -1 6 5 0 6 8 13 18 15 15 4
15 5 0 6 -9 0 -20 -4 -23 -10z"/>
<path d="M1368 2563 c6 -65 10 -70 11 -15 0 28 -3 52 -7 52 -4 0 -6 -17 -4
-37z"/>
<path d="M2398 2593 c6 -2 18 -2 25 0 6 3 1 5 -13 5 -14 0 -19 -2 -12 -5z"/>
<path d="M2888 2593 c6 -2 18 -2 25 0 6 3 1 5 -13 5 -14 0 -19 -2 -12 -5z"/>
<path d="M972 2550 c0 -19 2 -27 5 -17 2 9 2 25 0 35 -3 9 -5 1 -5 -18z"/>
<path d="M1071 2544 c0 -11 3 -14 6 -6 3 7 2 16 -1 19 -3 4 -6 -2 -5 -13z"/>
<path d="M1190 2548 c0 -13 7 -18 28 -17 21 1 22 2 7 6 -11 3 -23 10 -27 17
-5 7 -8 5 -8 -6z"/>
<path d="M911 2534 c0 -11 3 -14 6 -6 3 7 2 16 -1 19 -3 4 -6 -2 -5 -13z"/>
<path d="M1057 2515 c3 -8 9 -12 14 -9 12 7 11 11 -5 17 -10 4 -13 1 -9 -8z"/>
<path d="M838 2508 c5 -5 16 -8 23 -6 8 3 3 7 -10 11 -17 4 -21 3 -13 -5z"/>
<path d="M1175 2510 c-3 -5 -1 -10 4 -10 6 0 11 5 11 10 0 6 -2 10 -4 10 -3 0
-8 -4 -11 -10z"/>
<path d="M2381 2364 c0 -11 3 -14 6 -6 3 7 2 16 -1 19 -3 4 -6 -2 -5 -13z"/>
<path d="M1861 2354 c0 -11 3 -14 6 -6 3 7 2 16 -1 19 -3 4 -6 -2 -5 -13z"/>
<path d="M2721 2354 c0 -11 3 -14 6 -6 3 7 2 16 -1 19 -3 4 -6 -2 -5 -13z"/>
<path d="M2252 1610 c0 -14 2 -19 5 -12 2 6 2 18 0 25 -3 6 -5 1 -5 -13z"/>
<path d="M2411 1614 c0 -11 3 -14 6 -6 3 7 2 16 -1 19 -3 4 -6 -2 -5 -13z"/>
<path d="M3032 1610 c0 -14 2 -19 5 -12 2 6 2 18 0 25 -3 6 -5 1 -5 -13z"/>
<path d="M3422 1610 c0 -14 2 -19 5 -12 2 6 2 18 0 25 -3 6 -5 1 -5 -13z"/>
<path d="M3531 1614 c0 -11 3 -14 6 -6 3 7 2 16 -1 19 -3 4 -6 -2 -5 -13z"/>
<path d="M3562 1610 c0 -14 2 -19 5 -12 2 6 2 18 0 25 -3 6 -5 1 -5 -13z"/>
<path d="M3772 1610 c0 -14 2 -19 5 -12 2 6 2 18 0 25 -3 6 -5 1 -5 -13z"/>
<path d="M2281 1604 c0 -11 3 -14 6 -6 3 7 2 16 -1 19 -3 4 -6 -2 -5 -13z"/>
<path d="M861 1478 c1 -29 4 -43 6 -31 3 14 13 23 31 26 l27 4 -29 2 c-25 1
-28 4 -24 26 3 14 1 25 -3 25 -5 0 -8 -24 -8 -52z"/>
<path d="M915 1520 c3 -5 8 -10 11 -10 2 0 4 5 4 10 0 6 -5 10 -11 10 -5 0 -7
-4 -4 -10z"/>
<path d="M967 1523 c-3 -5 8 -8 23 -8 15 0 26 3 23 8 -2 4 -13 7 -23 7 -10 0
-21 -3 -23 -7z"/>
<path d="M1063 1523 c9 -2 23 -2 30 0 6 3 -1 5 -18 5 -16 0 -22 -2 -12 -5z"/>
<path d="M1135 1480 c0 -49 0 -50 30 -49 24 1 25 3 8 6 -26 5 -33 43 -9 43 8
0 17 4 20 9 4 5 -3 7 -14 4 -14 -4 -20 0 -20 12 0 12 6 16 20 12 11 -3 18 -1
14 4 -3 5 -15 9 -27 9 -20 0 -22 -5 -22 -50z"/>
<path d="M1271 1488 c1 -24 3 -35 6 -26 2 9 14 19 26 21 l22 4 -22 2 c-13 0
-23 7 -23 15 0 8 10 17 23 19 19 4 18 4 -5 6 -27 1 -28 -1 -27 -41z"/>
<path d="M1368 1523 c7 -3 16 -2 19 1 4 3 -2 6 -13 5 -11 0 -14 -3 -6 -6z"/>
<path d="M2331 1514 c0 -11 3 -14 6 -6 3 7 2 16 -1 19 -3 4 -6 -2 -5 -13z"/>
<path d="M1021 1474 c0 -11 3 -14 6 -6 3 7 2 16 -1 19 -3 4 -6 -2 -5 -13z"/>
<path d="M1075 1483 c11 -3 24 -10 28 -17 6 -7 7 -6 4 4 -2 8 -14 16 -28 17
-19 1 -20 1 -4 -4z"/>
<path d="M967 1438 c2 -5 13 -8 23 -8 10 0 21 3 23 8 3 4 -8 7 -23 7 -15 0
-26 -3 -23 -7z"/>
<path d="M1075 1440 l-30 -8 27 -1 c15 0 30 4 33 9 3 6 5 9 3 9 -2 -1 -16 -5
-33 -9z"/>
<path d="M1283 1433 c9 -2 23 -2 30 0 6 3 -1 5 -18 5 -16 0 -22 -2 -12 -5z"/>
<path d="M1368 1433 c7 -3 16 -2 19 1 4 3 -2 6 -13 5 -11 0 -14 -3 -6 -6z"/>
<path d="M2172 870 c0 -14 2 -19 5 -12 2 6 2 18 0 25 -3 6 -5 1 -5 -13z"/>
<path d="M2022 860 c0 -14 2 -19 5 -12 2 6 2 18 0 25 -3 6 -5 1 -5 -13z"/>
<path d="M2072 860 c0 -14 2 -19 5 -12 2 6 2 18 0 25 -3 6 -5 1 -5 -13z"/>
<path d="M2322 860 c0 -14 2 -19 5 -12 2 6 2 18 0 25 -3 6 -5 1 -5 -13z"/>
<path d="M2671 864 c0 -11 3 -14 6 -6 3 7 2 16 -1 19 -3 4 -6 -2 -5 -13z"/>
<path d="M1711 854 c0 -11 3 -14 6 -6 3 7 2 16 -1 19 -3 4 -6 -2 -5 -13z"/>
<path d="M2471 764 c0 -11 3 -14 6 -6 3 7 2 16 -1 19 -3 4 -6 -2 -5 -13z"/>
</g>
</svg>
